<svg width="56" height="56" viewBox="0 0 56 56" fill="none" xmlns="http://www.w3.org/2000/svg">
<path d="M38.2583 51.3556H38.009V44.0366C38.009 39.9641 35.5162 36.3132 31.8215 34.7848C31.9998 34.494 32.1045 34.1536 32.1045 33.7884C32.1045 32.9168 31.518 32.1809 30.7192 31.9506V29.4739C34.0008 28.8659 36.9982 27.157 39.2082 24.6208C41.564 21.9173 42.8614 18.4515 42.8614 14.8615C42.8614 6.66692 36.1945 0 28 0C19.8055 0 13.1388 6.66692 13.1388 14.8614C13.1388 15.6091 13.3358 15.8314 13.5223 15.8948C13.8575 16.009 14.2245 15.8893 14.3665 15.5653C18.3617 6.45225 23.5003 5.22367 28 5.22367C33.3142 5.22367 37.6377 9.54713 37.6377 14.8614C37.6377 20.1757 33.3142 24.4992 28.0002 24.4992C27.3453 24.4989 26.6914 24.4329 26.057 24.3032C25.8295 24.2569 25.5904 24.3217 25.4427 24.4794C25.2594 24.6751 25.281 24.9317 25.281 24.9317V31.9503C24.4823 32.1805 23.8957 32.9165 23.8957 33.7883C23.8957 34.1536 24.0002 34.494 24.1785 34.7846C20.484 36.3134 17.9914 39.9638 17.9914 44.0365V51.3555H17.7416C16.4613 51.3555 15.4197 52.3972 15.4197 53.6777C15.4197 54.9582 16.4613 55.9999 17.7416 55.9999H38.2583C39.5387 55.9999 40.5805 54.9582 40.5805 53.6777C40.5805 52.3973 39.5387 51.3556 38.2583 51.3556ZM26.5626 25.6834C27.0377 25.7458 27.5183 25.7808 28 25.7809C34.0209 25.7809 38.9193 20.8824 38.9193 14.8615C38.9193 8.8407 34.0208 3.94217 28 3.94217C24.6944 3.94217 22.0892 4.66616 19.8015 6.22066C17.8775 7.52792 16.2023 9.43063 14.7265 11.9917C16.0472 5.87744 21.4966 1.28163 28 1.28163C35.4879 1.28163 41.5797 7.37348 41.5797 14.8614C41.5797 21.5529 36.5952 27.3291 29.9855 28.2973C29.6666 28.3439 29.4399 28.6183 29.44 28.9313H29.4374V31.8743H26.5625V25.6834H26.5626ZM25.8099 33.1559H30.1898C30.5389 33.1559 30.8228 33.4396 30.8228 33.7883C30.8228 34.1372 30.5387 34.4209 30.1898 34.4209H25.8099C25.461 34.4209 25.1773 34.1372 25.1773 33.7883C25.1773 33.4396 25.461 33.1559 25.8099 33.1559ZM19.2731 44.0366C19.2731 40.1875 21.8262 36.7718 25.4994 35.675C25.6006 35.6916 25.7039 35.7025 25.8099 35.7025H30.1898C30.2959 35.7025 30.3996 35.6916 30.5011 35.675C34.1741 36.7719 36.7274 40.1877 36.7274 44.0366V51.3556H19.2731V44.0366ZM38.2583 54.7184H17.7416C17.168 54.7184 16.7013 54.2515 16.7013 53.6778C16.7013 53.104 17.1681 52.6373 17.7416 52.6373H38.2583C38.8321 52.6373 39.2988 53.1042 39.2988 53.6778C39.2988 54.2516 38.8319 54.7184 38.2583 54.7184Z" fill="#E63535"/>
</svg>
