<svg width="376" height="77" viewBox="0 0 376 77" fill="none" xmlns="http://www.w3.org/2000/svg">
<path d="M33.8711 24.2734C34.5742 24.3203 35.2773 24.4844 35.9805 24.7656L38.8633 24.5195V24.625L39.0391 24.5195C39.1797 24.5195 39.4023 24.5547 39.707 24.625C40.0117 24.5547 40.2344 24.5195 40.375 24.5195C40.8438 24.6367 41.207 24.7539 41.4648 24.8711C41.5352 24.8711 41.875 24.7539 42.4844 24.5195H43.082C43.1758 24.5195 43.6562 24.6367 44.5234 24.8711C44.5234 24.7305 46.4922 24.6133 50.4297 24.5195L50.9219 24.625V24.6953L50.0781 25.7148H50.1484C51.3672 24.918 52.1641 24.5195 52.5391 24.5195H53.5234C53.8281 24.5195 54.0273 25.1406 54.1211 26.3828V26.4531C54.1211 27.0859 53.875 27.4023 53.3828 27.4023L52.0117 27.2266C51.543 27.4609 51.2383 27.5781 51.0977 27.5781H50.7461L50.2539 27.4727C49.5742 27.4727 48.8359 27.9766 48.0391 28.9844C47.7344 28.9375 47.5117 28.9141 47.3711 28.9141H47.3008V28.9844C47.6289 29.0547 47.793 29.1953 47.793 29.4062H47.9688L48.1445 29.3359C48.1445 29.3828 48.168 29.4062 48.2148 29.4062C47.8867 32.5234 47.7227 34.1055 47.7227 34.1523C47.8398 34.5508 47.8984 34.8555 47.8984 35.0664C47.8984 35.2305 47.8047 35.6523 47.6172 36.332C47.8516 37.1055 47.9688 37.5625 47.9688 37.7031V37.7734L47.8984 38.1953C47.7578 38.1953 47.5 38.1367 47.125 38.0195H47.0547V38.125C47.1719 38.125 47.3945 38.2305 47.7227 38.4414C47.7227 38.5117 47.6875 38.5938 47.6172 38.6875C47.6172 39.0391 47.6758 39.8594 47.793 41.1484H47.7227C47.7227 41.1953 47.7461 41.2188 47.793 41.2188C47.6289 41.7578 47.5234 43.6445 47.4766 46.8789C47.6875 47.3477 47.793 47.6055 47.793 47.6523C47.582 48.1211 47.4766 48.4258 47.4766 48.5664L47.7227 50.1836C47.6523 51.0273 47.6172 51.6133 47.6172 51.9414L47.4766 52.0469L47.1953 51.8711H47.0547C47.5469 52.4336 47.793 52.7734 47.793 52.8906C47.8633 53.1953 47.8984 53.418 47.8984 53.5586C47.7109 54.4492 47.5938 54.8945 47.5469 54.8945C47.7812 55.3164 47.8984 55.5977 47.8984 55.7383C47.7812 56.4883 47.7227 56.8867 47.7227 56.9336C47.7695 57.0273 47.793 57.1094 47.793 57.1797H47.7227C47.8398 57.3906 47.8984 57.6133 47.8984 57.8477V59.043C47.8984 59.0898 47.8633 59.1133 47.793 59.1133L47.8984 59.2891C47.8984 59.3359 47.8633 59.3594 47.793 59.3594L47.8984 59.5352C47.8984 60.543 47.6641 61.0469 47.1953 61.0469C46.8438 61.1172 46.4805 61.1523 46.1055 61.1523C46.0117 61.082 45.9297 61.0469 45.8594 61.0469V61.2227C46.5156 61.5039 47.1367 61.6797 47.7227 61.75C47.7227 61.8672 47.8047 62.2305 47.9688 62.8398L47.793 63.8594C47.9102 64.2578 47.9688 64.5625 47.9688 64.7734C47.9688 65.0781 47.9453 65.6172 47.8984 66.3906C48.0859 67.7969 48.4492 68.582 48.9883 68.7461C48.9883 68.8164 49.2109 68.9805 49.6562 69.2383H50.6758L51.168 69.3438C51.2617 69.2734 51.4023 69.2383 51.5898 69.2383H51.8359C51.9531 69.2383 52.0117 69.3203 52.0117 69.4844C51.6133 70.1875 51.4141 70.5859 51.4141 70.6797C52.2578 70.0234 52.6797 69.5781 52.6797 69.3438C53.7109 69.3438 54.2266 69.5312 54.2266 69.9062L53.9453 72.1914C54.0156 72.1914 54.0508 72.2266 54.0508 72.2969C53.9805 72.2969 53.9453 72.3203 53.9453 72.3672C53.5 72.25 52.9727 72.1914 52.3633 72.1914C51.543 72.3555 51.0391 72.4375 50.8516 72.4375C50.6172 72.4375 50.1367 72.332 49.4102 72.1211C48.8242 72.168 48.3672 72.1914 48.0391 72.1914H46.8789C46.6211 72.1914 46.1641 72.1328 45.5078 72.0156C45.4141 72.0156 45.25 72.0742 45.0156 72.1914V72.1211L45.1914 71.875C43.6445 72.0859 42.5195 72.1914 41.8164 72.1914C40.9023 72.1914 39.0742 72.168 36.332 72.1211C35.4883 72.2383 34.9844 72.2969 34.8203 72.2969V72.1914L35.8047 70.75H35.7344C35.3594 71.0781 34.8555 71.4531 34.2227 71.875C34.2227 71.9688 34.1641 72.1094 34.0469 72.2969L33.0273 72.1914C32.7695 72.1914 32.3242 72.25 31.6914 72.3672C31.5742 72.1094 31.5156 71.7461 31.5156 71.2773V70.9258C31.5156 70.6914 31.5391 70.3867 31.5859 70.0117C31.5391 69.918 31.5156 69.7422 31.5156 69.4844L36.2266 69.168C36.625 68.9336 36.8242 68.7344 36.8242 68.5703H37.0703C37.0703 68.7109 37.3047 68.9922 37.7734 69.4141V69.3438C37.375 68.5703 37.1758 68.1133 37.1758 67.9727C37.1758 67.832 37.2812 67.6094 37.4922 67.3047C37.3984 67.0938 37.3516 66.8711 37.3516 66.6367C37.5156 65.9102 37.5977 65.5117 37.5977 65.4414C37.5977 65.0664 37.5625 64.7266 37.4922 64.4219C37.6797 62.8281 37.8203 61.9023 37.9141 61.6445C37.8203 61.3867 37.7734 61.1406 37.7734 60.9062C37.8203 60.4844 37.8438 60.25 37.8438 60.2031C37.6797 59.8984 37.5977 59.6523 37.5977 59.4648C37.5977 59.3477 37.6797 59.0898 37.8438 58.6914C37.7969 58.1289 37.7734 57.6836 37.7734 57.3555V57.25C37.7734 57.2031 37.7969 57.1797 37.8438 57.1797L37.7734 57.0039V56.8281C37.9141 56.8281 38.2188 56.9688 38.6875 57.25H38.7578V57.1797C38.5938 57.1797 38.3711 56.875 38.0898 56.2656L37.9141 56.3359H37.8438C37.7266 56.3359 37.6445 56.1719 37.5977 55.8438C37.5977 55.7266 37.6797 55.3281 37.8438 54.6484C37.7266 53.8516 37.668 53.4062 37.668 53.3125H37.7734C37.7734 53.2422 37.7383 53.207 37.668 53.207C37.7383 52.4805 37.7969 52.1172 37.8438 52.1172L37.7734 51.9414V51.0977C37.7734 50.957 37.8203 50.7109 37.9141 50.3594C38.1016 50.3594 38.3828 50.4648 38.7578 50.6758V50.6055C38.1953 50.1367 37.9141 49.7383 37.9141 49.4102L38.0195 49.2344C37.3867 49.2344 37.0703 49.0938 37.0703 48.8125C36.7891 48.8828 36.6484 48.9766 36.6484 49.0938C36.7422 49.0938 36.8359 49.1758 36.9297 49.3398V49.4102L36.332 49.5156C34.5039 49.3984 33.5195 49.3398 33.3789 49.3398C33.0039 49.457 32.7461 49.5156 32.6055 49.5156H32.0078L31.8672 49.4102C32.1016 48.0742 32.3828 47.4062 32.7109 47.4062C32.6406 47.3125 32.6055 47.1719 32.6055 46.9844C32.3242 47.5 31.9609 48.0039 31.5156 48.4961L31.0234 49.5156L30.6016 49.4102H29.582C29.3477 49.4102 28.9844 49.3516 28.4922 49.2344C28.3047 49.3281 28.0469 49.4219 27.7188 49.5156C27.1094 49.4453 26.5703 49.4102 26.1016 49.4102H25.8555L24.8359 49.5156V49.4102L24.6953 49.5156H24.5898C24.1211 49.5156 23.6172 49.5391 23.0781 49.5859L21.7422 49.3398C21.4609 49.5039 21.2266 49.5859 21.0391 49.5859C20.8984 49.5859 20.5703 49.5039 20.0547 49.3398C19.9141 49.3398 19.5742 49.4219 19.0352 49.5859L18.9297 49.4102H19.0352C18.9648 49.3164 18.9297 49.2344 18.9297 49.1641L18.7891 49.2344L18.8594 49.4102V49.5156H16.6797L16.5039 49.4102C16.5039 49.5273 16.4688 49.5859 16.3984 49.5859C16.4688 49.6797 16.5273 49.9609 16.5742 50.4297H16.5039L16.5742 50.6055V50.8516C16.5742 50.8984 16.5508 50.9219 16.5039 50.9219C16.5039 50.9922 16.5273 51.0273 16.5742 51.0273L16.5039 51.4492L16.75 56.2656C16.6094 56.6875 16.4922 57.1562 16.3984 57.6719C16.5156 58.3047 16.6328 58.8203 16.75 59.2188C16.5859 59.6875 16.5039 60.0156 16.5039 60.2031H16.3984C16.0703 59.9453 15.9062 59.7578 15.9062 59.6406H15.8359V59.7109C16.3281 60.5312 16.5742 61.1172 16.5742 61.4688V62.2422C16.5742 62.6875 16.5508 63.2266 16.5039 63.8594C16.668 64.3281 16.75 64.6562 16.75 64.8438V65.0195C16.75 65.2539 16.6914 65.6172 16.5742 66.1094L17.2422 67.7969C16.75 68.0547 16.3281 68.4531 15.9766 68.9922L15.9062 69.168L17.1719 68.5C17.5469 68.7109 18.1094 68.957 18.8594 69.2383C19.1641 69.1914 19.3867 69.168 19.5273 69.168C21.7305 69.2617 22.832 69.4609 22.832 69.7656C22.832 69.8125 22.7969 69.8359 22.7266 69.8359L22.832 70.0117V72.1914C22.832 72.3086 22.7734 72.3672 22.6562 72.3672C22.2344 72.25 21.8359 72.1914 21.4609 72.1914C20.875 72.3086 20.4883 72.3672 20.3008 72.3672C19.9961 72.3672 19.3984 72.25 18.5078 72.0156C18.2969 72.1328 18.1094 72.1914 17.9453 72.1914V72.0156C18.1094 72.0156 18.1914 71.9688 18.1914 71.875H18.0859C17.875 71.9688 17.4297 72.0742 16.75 72.1914L15.6602 72.0156L12.8828 72.1914C12.8125 72.1914 12.5312 72.168 12.0391 72.1211C11.2891 72.168 10.668 72.1914 10.1758 72.1914C9.49609 72.1914 9.15625 72.0508 9.15625 71.7695C8.85156 72.1211 8.57031 72.2969 8.3125 72.2969C7.35156 72.1797 6.8125 72.1211 6.69531 72.1211C6.60156 72.1211 6.4375 72.1797 6.20312 72.2969C5.59375 72.2266 5.05469 72.1914 4.58594 72.1914C4.21094 72.1914 3.48438 72.2734 2.40625 72.4375C1.72656 72.3672 1.38672 72.2617 1.38672 72.1211C1.62109 71.6992 1.73828 71.3828 1.73828 71.1719V71.1016H1.63281C1.23438 71.9453 0.847656 72.3672 0.472656 72.3672C0.472656 72.2734 0.414062 72.0156 0.296875 71.5938C0.414062 71.1719 0.472656 70.9258 0.472656 70.8555C0.355469 70.4805 0.296875 70.2578 0.296875 70.1875C0.34375 69.6719 0.460938 69.4141 0.648438 69.4141H1.07031C2.61719 69.4141 3.64844 69.332 4.16406 69.168H4.26953C5.01953 69.168 5.54688 69.9297 5.85156 71.4531H5.95703V71.3477C5.95703 71.1367 5.83984 70.4102 5.60547 69.168V68.8164C5.91016 68.6055 6.19141 67.9375 6.44922 66.8125V65.0195L6.37891 64.5977H6.44922C6.40234 64.5039 6.37891 64.4219 6.37891 64.3516C6.49609 63.9766 6.55469 63.7188 6.55469 63.5781V62.4883C6.55469 62.4414 6.57812 62.418 6.625 62.418C6.625 62.3477 6.60156 62.3125 6.55469 62.3125L6.625 61.3281V60.8008C6.625 60.7539 6.64844 60.7305 6.69531 60.7305L6.625 60.5547V60.3086C6.625 60.2383 6.64844 60.2031 6.69531 60.2031L6.625 60.0625V59.7812C6.625 59.7344 6.64844 59.7109 6.69531 59.7109L6.625 59.5352V57.4258C6.625 57.3086 6.70703 57.25 6.87109 57.25C6.58984 56.9922 6.44922 56.5234 6.44922 55.8438H6.55469L6.44922 55.668C6.49609 55.1055 6.55469 54.8242 6.625 54.8242C6.625 54.7539 6.60156 54.7188 6.55469 54.7188L6.625 54.2969C6.50781 53.6406 6.44922 53.2773 6.44922 53.207C6.68359 52.8086 6.80078 52.5625 6.80078 52.4688C6.68359 52.2812 6.625 52.1055 6.625 51.9414C6.625 51.6367 6.68359 51.332 6.80078 51.0273L6.44922 49.5156C6.61328 48.8828 6.73047 48.5664 6.80078 48.5664L6.69531 48.3906C6.64844 47.4062 6.625 46.8203 6.625 46.6328C6.67188 45.1797 6.75391 44.4531 6.87109 44.4531C6.58984 43.9609 6.44922 43.6797 6.44922 43.6094C7.15234 43.0469 8.13672 42.625 9.40234 42.3438V42.2383H9.33203C8.76953 42.3555 8.42969 42.4141 8.3125 42.4141C7.98438 42.3672 7.82031 42.3086 7.82031 42.2383L6.625 42.6602L6.55469 42.4844V42.4141C6.55469 42.1328 6.60156 41.793 6.69531 41.3945C6.64844 39.8711 6.56641 38.8867 6.44922 38.4414V38.2656C6.61328 37.2344 6.69531 36.625 6.69531 36.4375V36.1562C6.69531 35.7578 6.61328 35.2891 6.44922 34.75V34.4688C6.61328 34.2344 6.69531 34.0117 6.69531 33.8008C6.53125 33.0508 6.44922 32.0664 6.44922 30.8477V30.1094C6.44922 30.0391 6.48438 30.0039 6.55469 30.0039L6.44922 29.8281V29.6875C6.44922 29.6172 6.48438 29.582 6.55469 29.582C6.34375 28.5273 5.96875 28 5.42969 28C5.42969 27.8125 5.76953 27.2148 6.44922 26.207H6.37891C5.44141 26.9336 4.84375 27.4141 4.58594 27.6484H4.33984C4.01172 27.6484 3.36719 27.5898 2.40625 27.4727C1.63281 27.543 1.15234 27.5781 0.964844 27.5781C0.636719 27.5781 0.472656 27.3789 0.472656 26.9805C0.496094 26.3477 0.554688 26.0312 0.648438 26.0312C0.460938 25.5625 0.367188 25.2344 0.367188 25.0469V24.625C0.390625 24.5078 0.449219 24.4492 0.542969 24.4492H1.38672C1.69141 24.4492 1.94922 24.4727 2.16016 24.5195C2.46484 24.4727 2.76953 24.4492 3.07422 24.4492C3.33203 24.4492 3.69531 24.4727 4.16406 24.5195L4.86719 24.3438C4.86719 24.4141 5.03125 24.5547 5.35938 24.7656H5.85156V24.9414L5.95703 25.5391H6.02734V24.6953C6.51953 24.5781 6.83594 24.5195 6.97656 24.5195C7.1875 24.6367 7.35156 24.6953 7.46875 24.6953C7.72656 24.6953 8.34766 24.6719 9.33203 24.625C10.4336 24.6719 11.1602 24.6953 11.5117 24.6953C12.0977 24.6484 12.4375 24.5898 12.5312 24.5195C13.0938 24.6602 13.375 24.7422 13.375 24.7656C13.4688 24.7188 13.9492 24.6367 14.8164 24.5195L16.3281 24.7656C16.75 24.6719 18.1328 24.5898 20.4766 24.5195C21.3203 24.5195 21.7422 24.6953 21.7422 25.0469V25.1875H21.8125C21.8125 24.625 21.8711 24.3438 21.9883 24.3438H22.6562L22.832 24.4492C22.7617 25.4805 22.7266 26.2422 22.7266 26.7344V27.1562C22.7266 27.4141 21.3789 27.5781 18.6836 27.6484L17.1719 28.3164C16.6797 27.8711 16.2578 27.2852 15.9062 26.5586C15.7891 26.4883 15.707 26.4531 15.6602 26.4531C15.918 26.8984 16.2578 27.8008 16.6797 29.1602C16.9609 29.3008 17.1016 29.3828 17.1016 29.4062C16.9141 30.2734 16.8203 30.7891 16.8203 30.9531C16.8906 31.4453 16.9258 31.7266 16.9258 31.7969C16.6445 32.1719 16.5039 32.4531 16.5039 32.6406C16.668 32.9219 16.75 33.1445 16.75 33.3086C16.75 33.707 16.6914 33.9062 16.5742 33.9062L16.6797 34.0469V34.3281C16.6797 34.375 16.6445 34.3984 16.5742 34.3984C16.5742 34.4453 16.6094 34.4688 16.6797 34.4688C16.5625 34.8672 16.5039 35.1836 16.5039 35.418C16.668 36.0977 16.75 36.5195 16.75 36.6836L16.3281 39.8125C16.3281 39.9531 16.4102 40.3398 16.5742 40.9727C15.9414 41.4883 15.1328 41.7461 14.1484 41.7461C14.1484 41.8633 14.0547 41.9219 13.8672 41.9219V42.0625C13.9375 42.0625 13.9727 42.0391 13.9727 41.9922C14.6758 42.0391 15.0977 42.0625 15.2383 42.0625C15.8242 42.0156 16.1641 41.9922 16.2578 41.9922C16.5859 42.1094 16.75 42.332 16.75 42.6602L16.3984 43.8555C16.3984 43.9961 16.4922 44.1953 16.6797 44.4531V45.0156L16.5742 45.1914L16.75 45.2969H17.9453C19.6328 45.4609 20.7227 45.543 21.2148 45.543C21.4023 45.4258 21.5781 45.3672 21.7422 45.3672H22.7266C22.8438 45.3906 22.9023 45.4492 22.9023 45.543V46.5625H23.0078C23.0781 45.7656 23.2188 45.3672 23.4297 45.3672C23.5234 45.3672 24.5078 45.4258 26.3828 45.543C26.5234 45.543 27.0273 45.4609 27.8945 45.2969L29.0547 45.6133H29.1602C29.3945 45.6133 29.6172 45.5547 29.8281 45.4375C30.5312 45.5078 30.9531 45.543 31.0938 45.543C31.75 45.543 32.5938 45.4258 33.625 45.1914L34.293 45.543C35.3242 45.4258 36.25 45.3672 37.0703 45.3672H37.2461C37.5039 45.3672 37.7617 45.2031 38.0195 44.875C38.0664 44.875 38.2305 44.8984 38.5117 44.9453H38.6172V44.875C38.1484 44.6875 37.9141 44.4062 37.9141 44.0312C37.9141 43.8203 37.9492 43.2227 38.0195 42.2383C37.9023 42.0508 37.8438 41.8867 37.8438 41.7461C37.8906 41.043 37.9141 40.6797 37.9141 40.6562C37.75 40.0234 37.668 39.543 37.668 39.2148L37.9141 38.0195V37.5977C38.3594 37.7148 38.6992 37.7734 38.9336 37.7734H39.0391V37.7031C38.3359 37.1641 37.8789 36.8828 37.668 36.8594V36.5078C37.668 36.4609 37.7031 36.4375 37.7734 36.4375C37.7734 36.3672 37.7383 36.332 37.668 36.332L37.9141 33.9062L37.668 31.8672H37.7734C37.7734 31.8203 37.7383 31.7969 37.668 31.7969L37.7734 31.1992V30.8477C37.4688 28.7617 36.8125 27.7188 35.8047 27.7188H35.5586V27.6484C35.7227 26.9219 35.8047 26.5234 35.8047 26.4531C35.5 26.7578 35.2773 27.1562 35.1367 27.6484C34.9727 27.5547 34.1641 27.4727 32.7109 27.4023C32.7109 27.332 32.5938 27.2734 32.3594 27.2266L31.5859 27.4023L31.5156 27.2266C31.6328 27.0156 31.6914 26.793 31.6914 26.5586C31.5742 26.207 31.5156 25.9258 31.5156 25.7148C31.5156 24.8711 31.5977 24.4492 31.7617 24.4492C31.8555 24.4492 32.1953 24.4727 32.7812 24.5195C33.5078 24.4023 33.8711 24.3203 33.8711 24.2734ZM68.1484 31.3398H70.1875C70.2812 31.3398 70.3281 31.4219 70.3281 31.5859L70.0117 34.1172H70.1875L71.0312 32.2539C71.0312 31.6445 71.1133 31.3398 71.2773 31.3398H71.3477C72.0742 31.5039 72.4727 31.5859 72.543 31.5859H73.6328L76.6562 32.4297C77.9219 32.7109 79.1641 33.332 80.3828 34.293C81.9062 35.6758 82.8086 36.6602 83.0898 37.2461C83.207 37.2695 83.3125 37.4102 83.4062 37.668C83.4062 37.7148 83.1016 37.7383 82.4922 37.7383V37.8438C83.2188 38.1719 83.6641 38.3359 83.8281 38.3359C84.5547 39.7188 85.1172 42.4492 85.5156 46.5273C85.4688 47.207 85.4219 47.5703 85.375 47.6172C85.4219 47.9922 85.4453 48.2969 85.4453 48.5312C85.3281 49.9609 85.2109 50.8047 85.0938 51.0625C84.1328 50.7344 83.6055 50.5703 83.5117 50.5703C83.793 50.8984 84.3555 51.2969 85.1992 51.7656L85.2695 52.082C85.0352 52.2695 84.8711 52.5273 84.7773 52.8555C84.8242 53.0664 84.8477 53.2656 84.8477 53.4531C84.4023 55.0938 83.7344 56.6406 82.8438 58.0938C82.6562 58.6094 82.457 58.9141 82.2461 59.0078L82.1406 58.5859H82.0703C82.0703 59.3828 81.7891 59.9688 81.2266 60.3438C79.3984 62.125 77.9102 63.2031 76.7617 63.5781C76.3164 64.0703 75.5547 64.3164 74.4766 64.3164C73.9375 64.0117 73.5391 63.5312 73.2812 62.875H73.2109V62.9805L73.7031 64.7383C73.6328 64.832 72.9648 64.9141 71.6992 64.9844C71.6992 65.1484 71.1602 65.2656 70.082 65.3359L69.6602 65.2656L68.1484 65.4062C67.3047 65.2422 65.875 65.0781 63.8594 64.9141L60.3086 63.8242L60.1328 63.5781C60.3672 63.3203 61.0117 62.9453 62.0664 62.4531V62.3828H61.9961C60.543 62.6172 59.6172 62.8984 59.2188 63.2266C56.7578 61.6562 55.2344 60.1328 54.6484 58.6562H54.7188L55.5625 58.7617H55.7383V58.6562C54.4023 58.3984 53.7344 57.9531 53.7344 57.3203C52.8906 55.1406 52.4688 53.3711 52.4688 52.0117V51.168L52.9609 51.0625H53.1367V50.9219C52.5039 50.8047 52.1875 50.7109 52.1875 50.6406C52.1875 50.4766 52.1641 49.9492 52.1172 49.0586C52.2344 48.9883 52.3164 48.9531 52.3633 48.9531C52.457 48.9531 52.8789 49.0938 53.6289 49.375H53.7344V49.3047C53.5938 49.3047 53.2539 49 52.7148 48.3906C52.6211 48.3906 52.4453 48.332 52.1875 48.2148C52.1875 44.5352 52.7852 41.5 53.9805 39.1094C54.2148 38.3594 54.4609 37.9375 54.7188 37.8438H54.8242C55.1992 38.1719 55.5391 38.7812 55.8438 39.6719L55.9844 39.7773H56.0898C55.9258 39.5664 55.8438 39.3672 55.8438 39.1797V38.2656C55.8438 38.0781 55.7031 37.6211 55.4219 36.8945C56.0547 35.8398 57.0859 34.9141 58.5156 34.1172C60.0859 33.0391 61.5273 32.3594 62.8398 32.0781C63.2148 32.0781 63.6953 32.957 64.2812 34.7148H64.3516V34.6094C64.2578 34.3047 64.1758 33.4961 64.1055 32.1836C64.0352 32.1836 63.9766 32.1016 63.9297 31.9375C64.1875 31.7734 65.5938 31.5742 68.1484 31.3398ZM65.0195 34.1875C65.0195 34.2578 64.9375 34.5742 64.7734 35.1367C64.8906 35.4883 64.9492 35.7344 64.9492 35.875C64.293 35.875 63.4492 37.0938 62.418 39.5312C62.418 39.7188 62.2188 40.5039 61.8203 41.8867V42.0625L61.8906 42.8008H61.75L61.4688 42.625V42.8008L61.75 43.2227C61.6797 43.5273 61.6445 43.7031 61.6445 43.75C61.7617 44.2656 61.8203 44.5703 61.8203 44.6641H61.75L61.8203 44.8398C61.7734 45.1445 61.75 45.3672 61.75 45.5078H61.5742C61.4102 45.5078 60.8711 45.3086 59.957 44.9102H59.8867V45.0156C60.4727 45.3203 61.0352 45.7891 61.5742 46.4219C61.6211 46.5156 61.6445 46.6562 61.6445 46.8438L61.5742 47.6875C61.7383 48.6484 61.8203 49.3516 61.8203 49.7969V51.168L62.418 54.6133H62.3125C62.3125 54.7773 62.5469 55.5625 63.0156 56.9688L62.8398 57.0742C62.1367 56.957 61.5742 56.8984 61.1523 56.8984H60.625V56.9688C61.0703 56.9688 61.6328 57.2031 62.3125 57.6719C63.2734 57.7188 63.7539 58.0234 63.7539 58.5859C64.9258 60.3438 65.7461 61.2461 66.2148 61.293C66.9414 61.457 67.5625 61.6797 68.0781 61.9609C68.6172 61.9609 69.5664 61.9023 70.9258 61.7852C71.5117 62.4414 72.0742 63.2031 72.6133 64.0703V64L71.7695 61.4688H71.875C73.2578 60.7656 74.207 59.8047 74.7227 58.5859C75.1211 57.6484 75.3203 57.0039 75.3203 56.6523L75.4961 56.5469C76.1055 56.5469 76.9141 56.7812 77.9219 57.25H78.2734C76.8438 56.2188 75.9414 55.7031 75.5664 55.7031L76.0938 50.5703H76.1641L76.0938 50.3945C76.0938 50.3477 76.1172 50.3242 76.1641 50.3242C76.1172 50.1602 76.0352 49.5391 75.918 48.4609L75.9883 48.2852L75.8125 47.4414C75.8125 47.3711 75.8477 46.9844 75.918 46.2812C75.8242 43.9141 75.625 42.2734 75.3203 41.3594H75.3906C75.4375 41.3594 75.7188 41.4531 76.2344 41.6406H76.3398V41.5352C75.3789 40.9258 74.8984 40.5039 74.8984 40.2695C74.3594 38.1602 73.4922 36.6484 72.2969 35.7344C70.7969 34.9844 69.4375 34.6094 68.2188 34.6094C67 34.6094 66.0742 34.8438 65.4414 35.3125H65.3711L65.1953 34.1875H65.0195ZM100.141 31.3398H102.18C102.273 31.3398 102.32 31.4219 102.32 31.5859L102.004 34.1172H102.18L103.023 32.2539C103.023 31.6445 103.105 31.3398 103.27 31.3398H103.34C104.066 31.5039 104.465 31.5859 104.535 31.5859H105.625L108.648 32.4297C109.914 32.7109 111.156 33.332 112.375 34.293C113.898 35.6758 114.801 36.6602 115.082 37.2461C115.199 37.2695 115.305 37.4102 115.398 37.668C115.398 37.7148 115.094 37.7383 114.484 37.7383V37.8438C115.211 38.1719 115.656 38.3359 115.82 38.3359C116.547 39.7188 117.109 42.4492 117.508 46.5273C117.461 47.207 117.414 47.5703 117.367 47.6172C117.414 47.9922 117.438 48.2969 117.438 48.5312C117.32 49.9609 117.203 50.8047 117.086 51.0625C116.125 50.7344 115.598 50.5703 115.504 50.5703C115.785 50.8984 116.348 51.2969 117.191 51.7656L117.262 52.082C117.027 52.2695 116.863 52.5273 116.77 52.8555C116.816 53.0664 116.84 53.2656 116.84 53.4531C116.395 55.0938 115.727 56.6406 114.836 58.0938C114.648 58.6094 114.449 58.9141 114.238 59.0078L114.133 58.5859H114.062C114.062 59.3828 113.781 59.9688 113.219 60.3438C111.391 62.125 109.902 63.2031 108.754 63.5781C108.309 64.0703 107.547 64.3164 106.469 64.3164C105.93 64.0117 105.531 63.5312 105.273 62.875H105.203V62.9805L105.695 64.7383C105.625 64.832 104.957 64.9141 103.691 64.9844C103.691 65.1484 103.152 65.2656 102.074 65.3359L101.652 65.2656L100.141 65.4062C99.2969 65.2422 97.8672 65.0781 95.8516 64.9141L92.3008 63.8242L92.125 63.5781C92.3594 63.3203 93.0039 62.9453 94.0586 62.4531V62.3828H93.9883C92.5352 62.6172 91.6094 62.8984 91.2109 63.2266C88.75 61.6562 87.2266 60.1328 86.6406 58.6562H86.7109L87.5547 58.7617H87.7305V58.6562C86.3945 58.3984 85.7266 57.9531 85.7266 57.3203C84.8828 55.1406 84.4609 53.3711 84.4609 52.0117V51.168L84.9531 51.0625H85.1289V50.9219C84.4961 50.8047 84.1797 50.7109 84.1797 50.6406C84.1797 50.4766 84.1562 49.9492 84.1094 49.0586C84.2266 48.9883 84.3086 48.9531 84.3555 48.9531C84.4492 48.9531 84.8711 49.0938 85.6211 49.375H85.7266V49.3047C85.5859 49.3047 85.2461 49 84.707 48.3906C84.6133 48.3906 84.4375 48.332 84.1797 48.2148C84.1797 44.5352 84.7773 41.5 85.9727 39.1094C86.207 38.3594 86.4531 37.9375 86.7109 37.8438H86.8164C87.1914 38.1719 87.5312 38.7812 87.8359 39.6719L87.9766 39.7773H88.082C87.918 39.5664 87.8359 39.3672 87.8359 39.1797V38.2656C87.8359 38.0781 87.6953 37.6211 87.4141 36.8945C88.0469 35.8398 89.0781 34.9141 90.5078 34.1172C92.0781 33.0391 93.5195 32.3594 94.832 32.0781C95.207 32.0781 95.6875 32.957 96.2734 34.7148H96.3438V34.6094C96.25 34.3047 96.168 33.4961 96.0977 32.1836C96.0273 32.1836 95.9688 32.1016 95.9219 31.9375C96.1797 31.7734 97.5859 31.5742 100.141 31.3398ZM97.0117 34.1875C97.0117 34.2578 96.9297 34.5742 96.7656 35.1367C96.8828 35.4883 96.9414 35.7344 96.9414 35.875C96.2852 35.875 95.4414 37.0938 94.4102 39.5312C94.4102 39.7188 94.2109 40.5039 93.8125 41.8867V42.0625L93.8828 42.8008H93.7422L93.4609 42.625V42.8008L93.7422 43.2227C93.6719 43.5273 93.6367 43.7031 93.6367 43.75C93.7539 44.2656 93.8125 44.5703 93.8125 44.6641H93.7422L93.8125 44.8398C93.7656 45.1445 93.7422 45.3672 93.7422 45.5078H93.5664C93.4023 45.5078 92.8633 45.3086 91.9492 44.9102H91.8789V45.0156C92.4648 45.3203 93.0273 45.7891 93.5664 46.4219C93.6133 46.5156 93.6367 46.6562 93.6367 46.8438L93.5664 47.6875C93.7305 48.6484 93.8125 49.3516 93.8125 49.7969V51.168L94.4102 54.6133H94.3047C94.3047 54.7773 94.5391 55.5625 95.0078 56.9688L94.832 57.0742C94.1289 56.957 93.5664 56.8984 93.1445 56.8984H92.6172V56.9688C93.0625 56.9688 93.625 57.2031 94.3047 57.6719C95.2656 57.7188 95.7461 58.0234 95.7461 58.5859C96.918 60.3438 97.7383 61.2461 98.207 61.293C98.9336 61.457 99.5547 61.6797 100.07 61.9609C100.609 61.9609 101.559 61.9023 102.918 61.7852C103.504 62.4414 104.066 63.2031 104.605 64.0703V64L103.762 61.4688H103.867C105.25 60.7656 106.199 59.8047 106.715 58.5859C107.113 57.6484 107.312 57.0039 107.312 56.6523L107.488 56.5469C108.098 56.5469 108.906 56.7812 109.914 57.25H110.266C108.836 56.2188 107.934 55.7031 107.559 55.7031L108.086 50.5703H108.156L108.086 50.3945C108.086 50.3477 108.109 50.3242 108.156 50.3242C108.109 50.1602 108.027 49.5391 107.91 48.4609L107.98 48.2852L107.805 47.4414C107.805 47.3711 107.84 46.9844 107.91 46.2812C107.816 43.9141 107.617 42.2734 107.312 41.3594H107.383C107.43 41.3594 107.711 41.4531 108.227 41.6406H108.332V41.5352C107.371 40.9258 106.891 40.5039 106.891 40.2695C106.352 38.1602 105.484 36.6484 104.289 35.7344C102.789 34.9844 101.43 34.6094 100.211 34.6094C98.9922 34.6094 98.0664 34.8438 97.4336 35.3125H97.3633L97.1875 34.1875H97.0117ZM130.27 15.0625V15.1328C130.27 15.1797 130.246 15.2031 130.199 15.2031L130.27 16.2227V16.8203C130.105 17.3125 130.023 17.5938 130.023 17.6641C130.023 18.0625 130.082 18.2617 130.199 18.2617L130.094 18.8594V19.5977C130.094 19.832 130.129 20.1484 130.199 20.5469C130.129 20.6406 130.07 20.9219 130.023 21.3906L130.27 21.8828V21.9531C130.27 22.3281 130.188 22.6094 130.023 22.7969C130.141 23.1484 130.199 23.3828 130.199 23.5C130.082 23.8984 130.023 24.2031 130.023 24.4141C130.023 24.5547 130.105 24.7188 130.27 24.9062V25.1875C130.223 26.4766 130.059 27.1211 129.777 27.1211C129.73 27.1211 129.273 27.1797 128.406 27.2969V27.3672C128.922 27.5313 129.262 27.6133 129.426 27.6133H129.531L130.094 27.543V27.6133C130.094 28.0117 130.07 28.6328 130.023 29.4766C130.141 29.8516 130.199 30.1094 130.199 30.25L129.953 31.1641C130.047 32.0078 130.094 32.7109 130.094 33.2734C130.094 33.4375 130.047 33.6367 129.953 33.8711L130.094 34.7148C130 35.207 129.953 35.6875 129.953 36.1562C130.047 36.9531 130.094 37.5156 130.094 37.8438V38.0898C130.094 38.1602 130.047 38.6055 129.953 39.4258V39.6016C129.953 39.9297 130 40.4922 130.094 41.2891L129.848 42.1328C130.012 42.1562 130.094 42.3789 130.094 42.8008V42.9062C130.094 43.2578 129.988 43.8203 129.777 44.5938C129.824 44.7109 129.906 45.0977 130.023 45.7539C129.977 46.1523 129.918 46.4102 129.848 46.5273C129.941 47.1367 130.059 47.4414 130.199 47.4414C130.457 47.4414 130.738 47.1016 131.043 46.4219C131.465 46.4219 131.969 46 132.555 45.1562C133.234 44.9922 133.715 44.6289 133.996 44.0664C134.559 43.1758 135.402 42.4492 136.527 41.8867C136.527 41.793 136.609 41.7109 136.773 41.6406C136.891 41.6406 136.949 41.7227 136.949 41.8867H137.125L136.949 41.4648C137.395 40.6445 138.18 39.8242 139.305 39.0039C141.18 36.707 142.926 34.8203 144.543 33.3438C144.871 33.1328 145.352 33.0273 145.984 33.0273H146.723L146.898 33.0977L146.652 34.1172V34.1875H146.723C146.723 33.9766 147.039 33.5898 147.672 33.0273C147.859 33.0273 148.328 33.1094 149.078 33.2734L149.676 33.0273L150.52 33.0977C151.691 33.0508 152.793 33.0273 153.824 33.0273C153.918 32.957 154 32.9219 154.07 32.9219V34.1875C154.07 34.2578 154.047 34.293 154 34.293C154.094 34.5508 154.141 34.9141 154.141 35.3828V35.4531C154.094 35.6406 153.93 35.7344 153.648 35.7344H151.539C150.836 35.9453 150.332 36.0508 150.027 36.0508L149.676 35.9805C149.465 35.9805 148.844 36.4023 147.812 37.2461H147.672C147.672 37.1758 147.637 37.1406 147.566 37.1406L140.5 43.3984L140.148 43.4688C139.703 42.8594 139.363 42.5312 139.129 42.4844V42.5547L139.797 43.75V43.9961C139.797 44.0664 139.375 44.4297 138.531 45.0859C138.836 45.1797 139.398 45.8008 140.219 46.9492C141.297 47.8867 141.836 48.5078 141.836 48.8125C141.578 48.9062 141.438 49.0117 141.414 49.1289V49.2344L141.59 49.1289H141.836C142.422 49.1289 143.066 49.6914 143.77 50.8164C144.754 51.6133 145.738 52.7969 146.723 54.3672C148.48 55.7734 149.359 56.7812 149.359 57.3906C149.688 57.4375 150.215 58 150.941 59.0781V59.1836H150.871C150.566 59.1836 150.004 59.1484 149.184 59.0781V59.2539C149.465 59.2539 150.133 59.4531 151.188 59.8516L151.785 59.6758C153.051 61.2461 154.152 62.0312 155.09 62.0312C155.254 62.1953 155.641 62.3711 156.25 62.5586V62.6289C156.156 63.0273 156.109 63.3672 156.109 63.6484C156.109 63.7422 156.215 64.1406 156.426 64.8438V64.9141C156.426 64.9609 156.402 64.9844 156.355 64.9844L156.426 65.1602C156.426 65.2773 156.367 65.3359 156.25 65.3359H156.004L155.828 65.2656L155.934 64.8438L155.828 64.4219H155.758C155.641 64.8203 155.582 65.1016 155.582 65.2656L155.16 65.1602C154.34 65.2773 153.895 65.3359 153.824 65.3359C153.566 65.3359 152.945 65.2773 151.961 65.1602C151.398 65.1602 150.719 65.1953 149.922 65.2656C149.43 65.1953 149.125 65.1602 149.008 65.1602L147.988 65.2656C147.777 65.2656 147.355 65.207 146.723 65.0898C146.277 65.2539 145.914 65.3359 145.633 65.3359C144.789 65.2188 144.168 64.9961 143.77 64.668L143.594 64.4219V64.3164L144.613 64.0703V64C144.379 64 144.156 63.9648 143.945 63.8945C143.641 63.9648 143.359 64 143.102 64C143.008 63.5547 142.527 62.9336 141.66 62.1367C140.676 60.8008 139.551 59.3945 138.285 57.918C138.285 57.6367 137.863 57.1797 137.02 56.5469L136.703 55.9844V55.8789C136.703 55.7383 136.984 55.5977 137.547 55.457V55.2812L137.371 55.3867H136.527C136.199 55.3867 135.52 54.7891 134.488 53.5938C134.371 53.5938 133 52.1406 130.375 49.2344L130.023 48.9531V50.5703C130.023 51.0156 130 51.6016 129.953 52.3281L130.094 52.8555C130 53.2773 129.953 53.6641 129.953 54.0156V54.1914C129.953 54.332 130 54.5898 130.094 54.9648C129.953 55.082 129.871 55.1406 129.848 55.1406H128.406V55.2109C129.016 55.5391 129.391 55.7031 129.531 55.7031H129.953V56.0547C130.117 56.6172 130.199 57.0156 130.199 57.25C130.199 57.4375 130.141 57.8828 130.023 58.5859C130.164 60.5547 130.387 61.5391 130.691 61.5391C130.902 62.0547 131.359 62.3125 132.062 62.3125C134.125 62.3125 135.215 62.418 135.332 62.6289V63.1562C135.145 63.8828 134.781 64.2461 134.242 64.2461V64.3164H135.086C135.156 64.3164 135.238 64.3984 135.332 64.5625V65.4062H135.262C134.535 65.1953 134.031 65.0898 133.75 65.0898C133.047 65.3008 132.59 65.4062 132.379 65.4062C131.887 65.3125 131.523 65.2656 131.289 65.2656H130.27C129.941 65.2656 129.379 65.207 128.582 65.0898L126.473 65.3359C125.676 65.1719 124.949 65.0898 124.293 65.0898C124.199 65.0898 123.859 65.1133 123.273 65.1602V64.9844C124.164 64.75 124.609 64.4688 124.609 64.1406C124.68 64.1406 124.715 64.1172 124.715 64.0703H124.609C124.188 64.3516 123.438 64.5508 122.359 64.668L121.656 65.3359C121.656 65.1719 121.352 65.0547 120.742 64.9844L119.898 65.2656C119.828 65.2656 119.547 65.2305 119.055 65.1602C118.867 65.2773 118.703 65.3359 118.562 65.3359C118.305 65.3359 118.047 65.2773 117.789 65.1602L116.277 65.4062C116.23 65.1953 116.172 65.0898 116.102 65.0898C116.219 64.5273 116.277 63.707 116.277 62.6289V62.5586C116.723 62.5586 117.25 62.5234 117.859 62.4531C118.094 62.5703 118.293 62.6289 118.457 62.6289C119.066 62.6289 119.805 62.3477 120.672 61.7852H120.742C120.812 61.7852 121.492 62.2656 122.781 63.2266H122.852V63.1562C122.57 63.1562 122.266 62.6172 121.938 61.5391L120.988 60.8711V60.7656L121.516 57.6719C121.398 56.9453 121.34 56.4648 121.34 56.2305C121.34 55.7383 121.363 55.2344 121.41 54.7188C121.363 53.8516 121.34 52.832 121.34 51.6602V51.4141C121.363 51.2969 121.422 51.2383 121.516 51.2383L122.359 51.8359V51.7656C122.148 51.1094 121.832 50.6875 121.41 50.5C121.41 50.125 121.352 49.6094 121.234 48.9531C121.422 48.1797 121.516 47.6172 121.516 47.2656C121.516 46.9609 121.422 46.6328 121.234 46.2812L121.586 44.2422L121.516 44.0664V42.625C121.516 42.5781 121.539 42.5547 121.586 42.5547C121.539 42.4375 121.516 42.3555 121.516 42.3086C121.516 41.8633 121.48 41.4648 121.41 41.1133C121.48 40.3398 121.539 39.9531 121.586 39.9531H121.656V39.7773H121.586L121.41 39.8477L121.34 39.6719L121.586 38.7578L121.234 35.9805L121.516 34.6094L121.34 33.5195L121.41 32.1836L121.34 31.7617C121.34 31.3867 122.008 31.0703 123.344 30.8125V30.6719H121.762L121.516 30.8125C121.422 30.8125 121.328 30.7305 121.234 30.5664C121.352 29.7695 121.41 29.3477 121.41 29.3008C121.246 27.9883 121.164 27.2031 121.164 26.9453C121.188 26.6172 121.27 26.3125 121.41 26.0312C121.129 25.1641 120.988 24.4023 120.988 23.7461C120.988 23.4414 121.129 23.2422 121.41 23.1484C122.02 23.1953 122.559 23.3359 123.027 23.5703C123.121 23.5234 123.262 23.5 123.449 23.5V23.3242C123.027 23.3242 122.523 23.0664 121.938 22.5508H121.234L121.094 22.6562C121.094 21.0156 120.391 20.1953 118.984 20.1953C117.18 20.1953 116.277 19.9961 116.277 19.5977C116.207 19.1055 116.172 18.6836 116.172 18.332V17.7344C116.195 17.6406 116.254 17.5938 116.348 17.5938H117.297C117.695 17.5938 118.223 17.4531 118.879 17.1719V17.2422C118.715 17.4531 118.633 17.6172 118.633 17.7344C119.125 17.2891 119.465 17.0664 119.652 17.0664C119.77 17.0664 119.828 17.1016 119.828 17.1719L120.391 17.0664H121.516C122.734 16.5742 123.824 16.3281 124.785 16.3281C126.637 15.5312 127.938 15.1328 128.688 15.1328H128.758C128.992 15.1328 129.297 15.1563 129.672 15.2031C129.906 15.1094 130.105 15.0625 130.27 15.0625ZM147.496 36.8945V37.0703H147.566V36.8945H147.496ZM137.617 55.2812V55.3867H137.793V55.2812H137.617ZM179.523 24.2734H179.699L181.387 24.6953V24.7656L181.211 25.0469H181.281C181.633 24.6484 182.43 24.4492 183.672 24.4492C184.984 24.5195 185.688 24.6016 185.781 24.6953C186.133 24.5312 186.379 24.4492 186.52 24.4492C187.527 24.6133 188.266 24.6953 188.734 24.6953C189.297 24.5781 189.801 24.5195 190.246 24.5195H190.316C190.363 24.5195 190.926 24.5781 192.004 24.6953C192.684 24.6953 193.527 24.6133 194.535 24.4492V25.0469H194.641C194.664 24.6953 194.746 24.5195 194.887 24.5195L195.309 24.625C195.473 24.625 195.918 24.5664 196.645 24.4492L198.508 24.625L199.527 24.5195C200.324 24.6367 200.852 24.6953 201.109 24.6953L203.395 24.4492C204.613 24.4961 205.457 24.5195 205.926 24.5195C206.887 24.4023 207.426 24.3438 207.543 24.3438C207.895 24.4609 208.094 24.5195 208.141 24.5195C208.445 24.4727 208.668 24.4492 208.809 24.4492L208.879 24.625V24.6953C208.879 24.7422 208.855 24.7656 208.809 24.7656C208.809 24.8359 208.832 24.8711 208.879 24.8711C208.879 24.8945 208.855 25 208.809 25.1875C208.855 25.5156 208.879 25.75 208.879 25.8906H208.984C209.266 24.8594 209.594 24.3438 209.969 24.3438H210.566C211.176 24.4844 212.523 24.5781 214.609 24.625L214.961 25.1172V25.1875L214.715 27.1562C214.762 27.25 214.785 27.332 214.785 27.4023L214.363 28.7383L214.469 29.5117C214.375 30.2383 214.234 30.6016 214.047 30.6016H213.941C213.73 30.4609 213.367 30.2969 212.852 30.1094H212.781V30.1797C213.016 30.3203 213.484 30.6836 214.188 31.2695L214.117 31.7969C214.164 32.4062 214.188 32.9688 214.188 33.4844C214.07 34.6562 213.906 35.2422 213.695 35.2422C213.18 35.4062 212.758 35.4883 212.43 35.4883H211.586C211.188 35.4883 210.988 35.1484 210.988 34.4688V34.2227C210.988 33.918 211.023 33.5312 211.094 33.0625C211.023 32.9453 210.988 32.8516 210.988 32.7812H211.094C211.211 32.7812 211.539 32.875 212.078 33.0625C212.078 32.7578 211.656 32.418 210.812 32.043C210.812 30.2383 210.449 29.3359 209.723 29.3359C209.02 29.1719 208.434 28.9141 207.965 28.5625C207.801 28.5625 207.602 28.5977 207.367 28.668C206.43 28.668 204.742 28.5273 202.305 28.2461C201.32 28.2461 200.395 28.3516 199.527 28.5625C199.035 28.5156 198.637 28.4922 198.332 28.4922H198.016L197.84 28.5625L197.734 28.4219C197.734 27.625 197.793 26.9219 197.91 26.3125V26.207H197.84C197.277 27.3789 196.996 28.0586 196.996 28.2461C197.043 28.3398 197.066 28.4219 197.066 28.4922L196.891 28.5625H195.309L195.484 30.6016L194.887 34.4688C195.004 35.0312 195.062 35.5703 195.062 36.0859C195.062 36.2266 195.004 36.9883 194.887 38.3711C194.887 38.4414 194.945 38.6875 195.062 39.1094H194.957L195.062 39.2852V40.7266C194.875 40.7266 194.477 40.668 193.867 40.5508C194.43 41.1836 194.875 41.5 195.203 41.5C195.203 41.5234 195.18 41.6289 195.133 41.8164C195.133 42.0742 195.156 42.4375 195.203 42.9062L195.133 44.2773C195.133 45.332 195.332 45.8594 195.73 45.8594L196.891 45.6133L198.438 45.9648C199.609 45.8945 200.559 45.8594 201.285 45.8594L201.461 46.1406V46.2812C201.062 47.3125 200.863 47.9102 200.863 48.0742V48.3203H200.969C200.969 47.9453 201.332 47.4648 202.059 46.8789C202.105 46.1055 202.246 45.7188 202.48 45.7188H202.656C203.594 45.8125 204.121 45.8594 204.238 45.8594C204.637 45.7656 204.859 45.7188 204.906 45.7188H205.855C206.605 45.7188 207.133 45.2031 207.438 44.1719V43.5039L207.367 43.0117C207.367 42.4727 207.707 42.1562 208.387 42.0625C208.387 42.0156 208.445 41.9922 208.562 41.9922C209.312 42.0391 209.84 42.0625 210.145 42.0625C210.262 42.0156 210.344 41.9922 210.391 41.9922V41.9219C209.758 41.9219 209.055 41.7227 208.281 41.3242H208.211C207.977 41.4414 207.812 41.5 207.719 41.5V41.3945C207.766 41.3008 207.789 41.1953 207.789 41.0781V40.9727L207.719 40.7969C207.953 40.7031 208.34 40.6562 208.879 40.6562C209.418 40.6562 210.016 40.7031 210.672 40.7969L210.566 41.2188V41.8164C210.566 42.0508 210.602 42.2734 210.672 42.4844C210.602 42.7188 210.566 42.918 210.566 43.082C210.637 44.3945 210.672 45.0742 210.672 45.1211L210.32 47.0547L210.566 48.3906C210.566 48.7656 210.543 49.3281 210.496 50.0781C210.262 50.0781 209.898 49.8906 209.406 49.5156V49.5859C209.734 50.4297 210.098 50.8516 210.496 50.8516L210.391 51.4492C210.508 52.7852 210.602 53.4883 210.672 53.5586L210.566 54.0508V55.0703L210.672 55.668L209.969 55.8438C209.617 55.7266 209.371 55.6094 209.23 55.4922C208.855 55.6562 208.516 55.7383 208.211 55.7383C207.812 55.7383 207.613 55.3164 207.613 54.4727C207.613 54.2852 207.508 53.3594 207.297 51.6953H207.613C207.895 51.6953 208.234 51.7539 208.633 51.8711C208.609 51.7305 208.188 51.4492 207.367 51.0273C207.25 50.0195 205.82 49.5156 203.078 49.5156C202.867 49.6094 202.609 49.6562 202.305 49.6562C202.023 49.4922 201.801 49.4102 201.637 49.4102H201.531C201.344 49.4102 201.203 49.4453 201.109 49.5156C200.898 49.4453 200.711 49.4102 200.547 49.4102L200.125 49.5156V49.4102L199.949 49.5156H199.176L198.93 49.3398C197.383 49.5039 196.457 49.5859 196.152 49.5859C195.941 49.5391 195.684 49.5156 195.379 49.5156H194.957V49.7617C194.957 50.043 195.039 50.4883 195.203 51.0977C195.133 51.6367 195.027 52.0586 194.887 52.3633L195.203 53.207L194.887 54.2266C194.887 54.4375 194.992 55.4805 195.203 57.3555C195.156 58.0586 195.133 58.4219 195.133 58.4453C195.25 58.9141 195.309 59.2188 195.309 59.3594H195.203C195.203 59.4297 195.238 59.4648 195.309 59.4648L195.203 59.8867V60.4844H195.133C194.969 60.4844 194.746 60.4258 194.465 60.3086V60.4844C194.652 60.4844 194.934 60.6484 195.309 60.9766C195.191 61.7031 195.133 62.1836 195.133 62.418C195.25 64.9727 195.391 66.7188 195.555 67.6562L195.484 67.9727C195.578 68.2539 195.742 68.3945 195.977 68.3945C195.977 69.2852 195.836 70.2461 195.555 71.2773V71.5938H195.625C195.812 70.8672 196.234 69.9766 196.891 68.9219C197.383 68.9219 198.684 69.1094 200.793 69.4844C200.98 69.3906 201.262 69.3086 201.637 69.2383C201.918 69.2383 202.059 69.4961 202.059 70.0117V70.5039C202.059 71.2773 201.941 71.875 201.707 72.2969L201.531 72.1914H199.598C199.152 72.1914 198.566 72.168 197.84 72.1211C197.535 72.2383 197.219 72.2969 196.891 72.2969C196.492 72.1094 196.27 72.0156 196.223 72.0156C195.613 72.0859 195.086 72.1211 194.641 72.1211H193.797C192.555 72.1211 191.934 71.9805 191.934 71.6992H191.828C191.828 71.8633 191.781 71.9453 191.688 71.9453C190.891 71.9453 189.766 72.0625 188.312 72.2969L187.293 71.9453C186.871 72.1094 186.613 72.1914 186.52 72.1914H185.254C185.254 72.1211 185.148 71.7578 184.938 71.1016C185.102 70.6797 185.184 70.3164 185.184 70.0117C185.113 69.707 185.078 69.4844 185.078 69.3438H185.008L184.234 72.1914H182.969C181.422 72.3555 180.555 72.4375 180.367 72.4375L179.172 72.1914L179.277 72.0156C179.277 71.8516 179.219 71.2656 179.102 70.2578C179.102 69.7422 179.242 69.4844 179.523 69.4844L180.016 69.5898C181.492 69.3555 182.254 69.2383 182.301 69.2383C182.488 69.3555 182.664 69.4141 182.828 69.4141H182.969C184.164 68.8516 184.762 68.3477 184.762 67.9023C184.949 66.707 185.09 65.9453 185.184 65.6172C185.066 65.2656 185.008 65.043 185.008 64.9492C185.125 64.2695 185.207 63.9297 185.254 63.9297L185.184 63.7539V62.2422C185.77 62.3594 186.473 62.7578 187.293 63.4375H187.715V63.332C187.293 63.332 186.93 62.9922 186.625 62.3125C186.297 62.0312 185.816 61.7266 185.184 61.3984L185.254 61.2227V60.9062C185.254 60.625 185.23 60.3438 185.184 60.0625C185.301 59.5938 185.359 59.0547 185.359 58.4453V56.0898C185.359 56.0195 185.383 55.9844 185.43 55.9844C185.383 55.8906 185.359 55.8086 185.359 55.7383C185.359 55.293 185.324 54.707 185.254 53.9805C185.371 53.5586 185.43 53.1602 185.43 52.7852V51.3438C185.43 51.2969 185.453 51.2734 185.5 51.2734L185.359 50.2539C185.406 50.2539 185.43 50.2305 185.43 50.1836L185.605 50.2539C185.957 50.1367 186.18 50.0781 186.273 50.0781V50.0078C185.711 49.8906 185.43 49.8086 185.43 49.7617L185.5 49.5859C185.336 49.1406 185.254 48.8594 185.254 48.7422C185.348 48.3438 185.43 48.1445 185.5 48.1445C185.289 47.418 185.184 46.8555 185.184 46.457C185.184 46.293 185.242 45.8477 185.359 45.1211C185.289 44.4883 185.254 43.9258 185.254 43.4336C185.254 43.1992 185.289 42.8828 185.359 42.4844C185.242 41.7578 185.184 40.7734 185.184 39.5312V38.5469C185.184 37.9609 185.711 37.5625 186.766 37.3516H187.188L187.363 37.4219C187.598 37.1406 187.715 36.9766 187.715 36.9297H187.609C187.422 37.0469 187.199 37.1055 186.941 37.1055H185.605L185.184 37.1758L185.008 35.6641C185.008 35.5938 185.031 35.5117 185.078 35.418C185.031 35.0195 185.008 34.7031 185.008 34.4688V33.7305C185.008 33.6602 185.031 33.625 185.078 33.625C184.914 33.25 184.832 33.0273 184.832 32.957C184.949 32.2305 185.008 31.7031 185.008 31.375L184.656 28.9141C184.656 28.2109 183.766 27.707 181.984 27.4023L181.879 26.9805H181.984C181.914 26.8633 181.879 26.7812 181.879 26.7344L181.984 26.1367C181.867 26.1836 181.586 26.6289 181.141 27.4727C180.578 27.3555 180.062 27.2969 179.594 27.2969H179.453L179.277 27.2266L179.348 26.8047V26.6289C179.184 25.9023 179.102 25.5156 179.102 25.4688V25.3633C179.102 25.3164 179.125 25.293 179.172 25.293C179.172 25.2227 179.148 25.1875 179.102 25.1875C179.102 24.8359 179.242 24.5312 179.523 24.2734ZM228.109 31.4102C228.625 31.5273 228.965 31.5859 229.129 31.5859L229.727 31.4102H229.973C230.254 31.5508 230.395 31.8086 230.395 32.1836C230.395 32.6523 230.172 33.1797 229.727 33.7656L229.797 34.293H229.902C229.902 34.1055 230.266 33.4258 230.992 32.2539C231.039 31.9258 231.098 31.7617 231.168 31.7617L232.188 31.6562C233.172 31.8906 234.719 32.6523 236.828 33.9414V34.0469L236.723 34.1875C237.004 34.1875 237.32 34.4688 237.672 35.0312C238.844 36.2266 239.43 37.7734 239.43 39.6719C239.5 39.6719 239.582 40.293 239.676 41.5352H239.605C239.605 41.6055 239.629 41.6406 239.676 41.6406C239.582 42.0859 239.5 43.3516 239.43 45.4375C239.477 45.6016 239.5 45.9297 239.5 46.4219C239.5 46.6562 238.891 46.7734 237.672 46.7734V46.8438C238.656 47.0781 239.242 47.1953 239.43 47.1953H239.5C239.453 47.8516 239.43 48.332 239.43 48.6367V48.707C239.43 49.7852 239.406 51.1328 239.359 52.75C239.406 52.9844 239.43 53.1836 239.43 53.3477H239.359C239.359 53.418 239.383 53.4531 239.43 53.4531L239.359 54.2969V54.9648C239.359 55.0117 239.324 55.0352 239.254 55.0352L239.359 55.2109V55.7031C239.359 56.3125 239.324 57.2148 239.254 58.4102H238.832C237.777 58.082 237.215 57.918 237.145 57.918H236.828C236.828 57.9648 237.672 58.4688 239.359 59.4297C239.57 60.6016 239.934 61.1875 240.449 61.1875C240.66 61.5391 241.809 61.7969 243.895 61.9609V64.8438L243.473 64.7383H240.941C238.668 64.5273 237.098 64.4219 236.23 64.4219L235.141 64.5625V64.4922L235.457 62.3828V61.9609H235.281L234.191 64.4922C233.184 64.6562 232.316 64.7383 231.59 64.7383H230.992C230.805 64.7383 230.664 64.4336 230.57 63.8242V63.7188C230.57 62.7109 230.652 62.207 230.816 62.207H230.922C230.922 62.3711 231.086 62.5938 231.414 62.875C231.391 62.2891 231.191 61.7852 230.816 61.3633V60.8711C230.816 60.4961 230.875 60.0977 230.992 59.6758L230.5 60.0977H230.324V59.6758C230.324 59.5586 230.266 59.5 230.148 59.5H229.727C229.773 59.9922 229.797 60.2734 229.797 60.3438C229.445 60.9297 228.695 61.5273 227.547 62.1367C226.844 62.8633 226.164 63.3906 225.508 63.7188C224.828 64.4688 224.184 64.9258 223.574 65.0898H223.398C223.258 65.0898 223.176 64.8906 223.152 64.4922H223.047C223.047 65.0078 222.965 65.2656 222.801 65.2656C221.488 65.3594 220.68 65.4062 220.375 65.4062H220.094C218.5 65.4062 216.906 64.9023 215.312 63.8945C214.234 62.8398 213.695 61.9375 213.695 61.1875C213.414 60.8594 213.273 60.5781 213.273 60.3438V60.2734C213.273 60.1797 213.637 59.957 214.363 59.6055V59.5H213.695L213.098 59.6055L212.852 58.2344C212.898 57.8594 212.922 57.5547 212.922 57.3203V56.0547C212.922 53.3828 213.883 51.2734 215.805 49.7266C216.672 48.9297 217.398 48.5312 217.984 48.5312V48.707L218.09 49.5508H218.16C218.324 48.543 218.582 48.0391 218.934 48.0391C220.105 47.5234 221.57 47.1016 223.328 46.7734C224.219 46.2578 225.086 46 225.93 46C225.93 46.0703 225.953 46.1055 226 46.1055L225.859 46.5977L226 46.7031C226.211 45.9062 226.973 45.5078 228.285 45.5078C230.09 45.2031 230.992 44.8984 230.992 44.5938L230.922 44.418V44.0664C230.922 42.1445 230.383 40.4336 229.305 38.9336C229.328 38.8164 229.387 38.7578 229.48 38.7578H230.746V38.6875C230.324 38.6172 229.785 38.4414 229.129 38.1602C228.941 38.2773 228.801 38.3359 228.707 38.3359C227.582 37.1641 226.176 36.5781 224.488 36.5781H223.75C221.148 36.7188 219.848 37.1641 219.848 37.9141C219.238 39.1328 218.816 40.0352 218.582 40.6211H218.512C218.418 40.6211 218.242 40.5625 217.984 40.4453V40.6211L218.512 40.7969V41.2188C216.941 40.9375 216.156 40.6562 216.156 40.375V40.0938C216.156 40.0469 216.18 40.0234 216.227 40.0234L216.156 39.8477V39.6016C216.156 39.5547 216.18 39.5312 216.227 39.5312C216.18 39.4141 216.156 39.3203 216.156 39.25C216.156 38.5234 216.098 37.5156 215.98 36.2266C216.684 35.5703 217.609 35.0312 218.758 34.6094C219.508 34.0938 220.328 33.6719 221.219 33.3438H221.289C221.57 33.9297 221.711 34.2695 221.711 34.3633C221.711 34.4336 221.688 34.4688 221.641 34.4688L221.711 34.6094V34.8906C221.711 34.9375 221.688 34.9609 221.641 34.9609C221.734 35.6875 221.875 36.0508 222.062 36.0508L221.957 35.4531V34.8906C221.957 34.75 222.016 34.4922 222.133 34.1172C222.086 33.5547 222.062 33.1328 222.062 32.8516C222.625 32.2422 224.641 31.7617 228.109 31.4102ZM230.922 47.5469C230.922 47.9219 230.523 48.168 229.727 48.2852C227.594 48.7305 225.848 49.2344 224.488 49.7969C222.52 50.9453 221.535 52.2109 221.535 53.5938H220.445C219.625 53.3125 219.18 53.1719 219.109 53.1719H218.934V53.2773C219.168 53.2773 219.789 53.6172 220.797 54.2969C221.242 54.2969 221.465 54.4023 221.465 54.6133C221.465 54.8477 221.43 55.1641 221.359 55.5625C221.359 56.2188 221.676 56.9453 222.309 57.7422C222.309 58.2109 223.012 58.6328 224.418 59.0078V59.0781L223.398 60.0977H223.574C224.582 59.7227 225.109 59.418 225.156 59.1836C225.578 59.3008 225.836 59.3594 225.93 59.3594C227.266 59.3594 228.953 58.3398 230.992 56.3008L230.816 55.0352L231.062 53.875C230.898 53.4531 230.816 53.2188 230.816 53.1719C230.934 52.5391 230.992 52.0938 230.992 51.8359H231.59V51.7656C231.191 51.6484 230.992 51.5547 230.992 51.4844C230.992 51.1562 230.969 50.5703 230.922 49.7266L231.062 49.3047C231.016 48.9062 230.969 48.6484 230.922 48.5312C230.969 48.2266 230.992 48.0039 230.992 47.8633V47.5469H230.922ZM261.508 31.3398C264.555 31.6211 266.078 31.8672 266.078 32.0781V32.1836C266.008 32.4648 265.973 32.6289 265.973 32.6758V32.7812H266.078C266.102 32.4766 266.242 32.2188 266.5 32.0078C268.117 32.3125 268.926 32.8164 268.926 33.5195V33.9414C268.715 34.457 268.551 35.3008 268.434 36.4727C268.223 38.2773 268.023 39.1797 267.836 39.1797L266.922 38.3359V38.4062C267.203 39.0625 267.508 39.5781 267.836 39.9531C267.719 42.0156 267.66 43.2461 267.66 43.6445L267.484 43.75C267.203 43.75 266.734 43.7148 266.078 43.6445C265.492 43.7148 265.035 43.75 264.707 43.75V43.6445C264.777 43.2695 264.812 42.9648 264.812 42.7305V41.8867L264.109 38.7578C263.828 38.5234 263.688 38.2656 263.688 37.9844C263.688 37.3516 264.109 36.5664 264.953 35.6289V35.3125H264.883C264.789 35.8047 264.25 36.3086 263.266 36.8242C263.055 37.2227 262.949 37.4453 262.949 37.4922C262.41 37.4922 261.871 37.2695 261.332 36.8242C260.066 36.5898 259.164 36.4727 258.625 36.4727H258.555C256.398 36.4727 254.547 37.1172 253 38.4062C252.32 39.5781 251.98 40.375 251.98 40.7969C251.699 41.8984 251.559 42.5664 251.559 42.8008V42.9062C251.418 42.9062 250.914 42.6484 250.047 42.1328C250.539 42.9062 251.043 43.4453 251.559 43.75C251.395 44.1016 251.312 44.4883 251.312 44.9102C251.312 45.0273 251.336 45.3438 251.383 45.8594H251.312L251.383 46C251.336 46.8438 251.277 47.2656 251.207 47.2656C251.371 47.5469 251.512 48.5664 251.629 50.3242C252.145 52.4336 252.566 53.6992 252.895 54.1211L251.453 55.2109H251.559C252.168 55.0938 252.73 54.9297 253.246 54.7188C253.926 56.0312 254.91 57.1562 256.199 58.0938C257.09 58.9609 258.238 59.5703 259.645 59.9219L259.75 60.0977L259.047 61.6094C259.75 61.0234 260.23 60.4961 260.488 60.0273H260.664C261.414 60.1914 261.918 60.2734 262.176 60.2734C263.184 60.2734 264.789 60.1094 266.992 59.7812C267.227 60.1797 267.344 60.6016 267.344 61.0469H267.414C267.531 60.5078 267.59 60.0859 267.59 59.7812L267.414 59.4297C267.812 59.1484 268.117 59.0078 268.328 59.0078H268.434C268.504 59.0078 268.703 59.2305 269.031 59.6758C268.188 62.3242 267.309 63.6484 266.395 63.6484C266.207 63.8125 265.926 63.8945 265.551 63.8945H265.375L265.129 63.7188C265.129 64.3281 264.227 64.7031 262.422 64.8438C261.695 65.0078 261.227 65.0898 261.016 65.0898H259.996C259.785 65.0898 259.504 65.1953 259.152 65.4062L258.309 65.3359H256.094C255.578 65.1719 255.25 65.0898 255.109 65.0898L254.512 65.1602C252.59 64.668 251.523 64.3047 251.312 64.0703L251.98 63.1562V63.0508C251.605 63.1914 251.184 63.5078 250.715 64C248.84 63.1094 247.457 62.1719 246.566 61.1875C246.566 61.0234 245.922 60.2148 244.633 58.7617C244.117 57.707 243.859 57.0859 243.859 56.8984L243.965 56.7227C243.637 56.7227 243.379 56.1367 243.191 54.9648C243.074 54.9648 243.016 54.7891 243.016 54.4375H243.121C242.723 53.0312 242.523 51.9648 242.523 51.2383H242.594C242.594 51.1914 242.57 51.168 242.523 51.168L242.594 50.1484V47.125C242.594 47.0547 242.629 47.0195 242.699 47.0195C242.629 46.9258 242.594 46.8438 242.594 46.7734C242.875 44.8516 243.156 43.8906 243.438 43.8906V43.4688C243.766 41.8984 244.305 40.6914 245.055 39.8477C245.922 38.207 247.773 36.7773 250.609 35.5586C250.984 35.1836 251.523 34.7852 252.227 34.3633C252.344 34.4336 252.625 35.0781 253.07 36.2969L253.246 36.4023C253.246 36.2852 253.188 36.0625 253.07 35.7344C253.188 35.125 253.246 34.75 253.246 34.6094C253.152 34.375 253.035 34.1523 252.895 33.9414L254.16 33.2734C254.512 32.8281 255.531 32.2891 257.219 31.6562C259.094 31.4453 260.523 31.3398 261.508 31.3398ZM280.527 20.2656C280.738 20.3594 281.078 20.5937 281.547 20.9688C281.5 21.7187 281.477 22.2812 281.477 22.6562V23.1484C281.242 23.7812 281.125 24.1445 281.125 24.2383L281.195 24.6602H281.055L280.281 24.0625V24.2383C280.281 24.8008 280.586 25.1992 281.195 25.4336V25.5039C280.867 26.4648 280.703 27.3437 280.703 28.1406C280.75 28.8203 280.773 29.1836 280.773 29.2305C280.75 29.6289 280.703 29.8281 280.633 29.8281C280.727 30.1562 280.773 30.3789 280.773 30.4961C280.727 30.9648 280.703 31.3281 280.703 31.5859L280.773 32.0078H280.703C280.703 32.0547 280.727 32.0781 280.773 32.0781L280.633 33.0977C280.68 33.1914 280.703 33.332 280.703 33.5195H280.633L280.703 33.6953L280.633 34.1875V34.293C282.203 34.5039 282.988 34.75 282.988 35.0312C283.105 35.8281 283.211 36.2266 283.305 36.2266C283.305 36.0391 283.363 35.5938 283.48 34.8906C283.434 34.7734 283.41 34.6562 283.41 34.5391H285.098C285.426 34.5391 285.988 34.457 286.785 34.293C287.348 34.5039 287.711 34.6094 287.875 34.6094C288.953 34.2812 289.656 34.1172 289.984 34.1172C290.102 34.1406 290.16 34.1992 290.16 34.293V34.4688C290.16 34.7969 289.844 36.0859 289.211 38.3359C289.211 38.8516 289.164 39.1094 289.07 39.1094H288.543V39.0039L288.789 37.7383H288.648L287.945 39.1094C287.406 38.875 286.562 38.7578 285.414 38.7578C285.32 38.7578 285.156 38.8164 284.922 38.9336L284.148 38.8281C281.805 38.8281 280.633 39.0273 280.633 39.4258C280.633 39.6133 280.598 39.7539 280.527 39.8477L280.633 40.375V40.6914C280.445 40.6914 280.246 40.7266 280.035 40.7969V40.8672C280.434 40.8672 280.633 41.0898 280.633 41.5352C280.562 41.8398 280.527 42.0977 280.527 42.3086C280.598 42.8008 280.633 43.082 280.633 43.1523H280.527C280.527 43.1992 280.562 43.2227 280.633 43.2227C280.562 43.3867 280.469 44.4883 280.352 46.5273C280.422 47.0195 280.457 47.4414 280.457 47.793H280.352C279.789 47.8398 279.344 47.8633 279.016 47.8633H278.945V48.0391C280.117 48.1797 280.703 48.4023 280.703 48.707C280.656 49.3164 280.574 49.8203 280.457 50.2188C280.645 53.5469 280.867 56.1719 281.125 58.0938C281.734 59.1016 282.414 59.6055 283.164 59.6055C283.914 59.6523 284.477 59.6758 284.852 59.6758C284.852 59.6289 284.875 59.6055 284.922 59.6055L284.992 59.7812C284.875 60.1797 284.488 60.7656 283.832 61.5391V61.7852H283.902C283.902 61.5039 284.523 60.8828 285.766 59.9219C285.766 59.7578 285.824 59.5703 285.941 59.3594L286.117 59.4297C286.961 59.3125 287.547 59.1719 287.875 59.0078C288.016 59.4297 288.273 59.8516 288.648 60.2734V60.3438C288.18 60.6953 287.277 61.6562 285.941 63.2266C285.496 63.5312 284.992 64.1172 284.43 64.9844C283.117 65.2656 282.098 65.4062 281.371 65.4062H278.84V65.3359C278.957 64.9844 279.016 64.7617 279.016 64.668V64.5625H278.945C278.898 64.8672 278.699 65.1484 278.348 65.4062C277.738 65.4062 276.918 65.125 275.887 64.5625C275.582 64.5625 274.914 64.1758 273.883 63.4023C273.156 63.4023 272.453 61.8789 271.773 58.832V58.6562C271.82 57.9531 271.844 57.5312 271.844 57.3906H271.914C272.102 57.4609 272.383 57.8594 272.758 58.5859C272.875 58.6328 272.992 58.6562 273.109 58.6562C272.805 58.3984 272.582 57.8359 272.441 56.9688C271.996 56.5938 271.773 56.1484 271.773 55.6328C271.773 55.375 271.82 54.6484 271.914 53.4531C271.82 52.7969 271.773 52.3398 271.773 52.082L272.02 49.9727C271.902 49.7617 271.844 49.457 271.844 49.0586L271.914 48.5312C271.914 48.4844 271.891 48.4609 271.844 48.4609C271.891 47.6172 272.008 46.9141 272.195 46.3516C272.195 46.2109 272.137 45.8711 272.02 45.332L272.09 44.9102C272.066 44.418 272.008 44.1719 271.914 44.1719L272.02 43.75V41.3594C272.02 41.1719 272.102 40.8438 272.266 40.375C272.172 39.4141 272.055 38.9336 271.914 38.9336H269.242L268.223 39.0039C268.105 38.8164 268.047 38.6523 268.047 38.5117C268.047 38.4414 268.07 38.4062 268.117 38.4062C268.047 37.8438 267.941 37.4805 267.801 37.3164V37.2461C268.27 36.707 269.195 36.0859 270.578 35.3828C271.656 34.75 272.195 34.2109 272.195 33.7656V33.2031L272.266 33.0273L272.441 33.0977H272.512C272.113 32.582 271.914 31.9609 271.914 31.2344C272.031 30.9766 272.09 30.7305 272.09 30.4961C272.043 30.1914 272.02 29.9688 272.02 29.8281H272.09C272.09 29.7578 272.066 29.7227 272.02 29.7227C272.066 29.2305 272.09 28.9258 272.09 28.8086L271.773 24.8359C271.867 24.7891 271.973 24.7656 272.09 24.7656V24.6602C271.973 24.6602 271.867 24.6367 271.773 24.5898C271.773 23.6289 272.277 23.1484 273.285 23.1484C276.004 22.4688 277.832 21.7656 278.77 21.0391C279.801 20.5234 280.387 20.2656 280.527 20.2656ZM267.625 38.5117H267.695C267.789 38.5117 267.883 38.6758 267.977 39.0039C267.906 39.0039 267.871 39.0391 267.871 39.1094C267.777 39.0391 267.695 39.0039 267.625 39.0039V38.8281C267.625 38.7812 267.648 38.7578 267.695 38.7578L267.625 38.582V38.5117ZM278.77 47.8633V48.0391H278.84V47.8633H278.77ZM302.219 31.3398L302.641 31.4102C302.664 31.4102 303.027 31.3867 303.73 31.3398C304.973 31.3398 306.625 31.5625 308.688 32.0078C309.32 32.0078 310.445 32.3711 312.062 33.0977C311.969 33.3555 311.922 33.8125 311.922 34.4688V34.6094C311.922 34.6797 311.887 34.7148 311.816 34.7148L311.922 34.8906V35.1367C311.922 35.1836 311.887 35.207 311.816 35.207L311.922 35.3828L311.57 37.4219C311.617 37.5156 311.641 37.6211 311.641 37.7383L311.5 37.8438C311.195 37.7734 311.02 37.7383 310.973 37.7383H310.797V37.8438C311.43 37.9375 311.746 38.043 311.746 38.1602C311.582 39.5898 311.5 40.7148 311.5 41.5352V41.6406H310.129L309.637 41.5352C309.543 41.6055 309.402 41.6406 309.215 41.6406H309.039C308.758 41.5234 308.617 41.207 308.617 40.6914C308.734 40.5039 308.793 40.3633 308.793 40.2695C308.582 37.9258 308.102 36.5781 307.352 36.2266C307.656 35.9219 308.102 35.6406 308.688 35.3828V35.3125H308.617C307.82 35.4531 307.141 35.6406 306.578 35.875C306.578 35.5703 305.406 35.1836 303.062 34.7148C300.109 34.7148 298.305 35.1602 297.648 36.0508C297.484 36.0508 297.121 36.3672 296.559 37H296.453C296.125 36.7656 295.902 36.6484 295.785 36.6484C296.137 36.9297 296.359 37.2109 296.453 37.4922C296.125 38.2656 295.938 38.9102 295.891 39.4258C296.148 40.6445 296.594 41.4648 297.227 41.8867C297.977 42.2852 298.398 42.4844 298.492 42.4844V42.625C298.492 42.6953 298.152 43.1172 297.473 43.8906H297.578C298.516 43.5156 298.984 43.1875 298.984 42.9062C299.102 42.9062 300.121 43.1523 302.043 43.6445C303.777 43.9961 305.289 44.3359 306.578 44.6641C306.93 44.6641 307.105 44.7812 307.105 45.0156L307.422 44.7344C309.438 45.2031 311.102 46.1641 312.414 47.6172C313.586 48.9297 314.172 50.5 314.172 52.3281C314.266 52.3281 314.324 52.5859 314.348 53.1016C314.207 53.2188 314.102 53.2773 314.031 53.2773L313.434 53.1719C313.691 53.4531 313.996 53.5938 314.348 53.5938C314.348 56.1719 313.562 58.457 311.992 60.4492C310.609 61.7617 309.121 62.8047 307.527 63.5781C307.527 63.8594 306.906 64.0469 305.664 64.1406H305.594C305.406 63.5547 305.289 62.8516 305.242 62.0312H305.172C305.055 62.5 304.996 63.0391 304.996 63.6484C304.996 63.6953 304.961 63.7188 304.891 63.7188L304.996 63.8945C304.996 64.457 304.656 64.7383 303.977 64.7383C303.156 64.9727 302.617 65.0898 302.359 65.0898C301.516 65.0898 300.73 65.1953 300.004 65.4062C299.23 65.2422 298.668 65.1602 298.316 65.1602C298.199 65.1602 298.094 65.1953 298 65.2656C296.266 65.1016 295.328 64.9609 295.188 64.8438C295.305 64.3516 295.363 64.0352 295.363 63.8945V63.8242H295.293C295.059 64.3164 294.941 64.6211 294.941 64.7383C294.262 64.7383 293.395 64.5977 292.34 64.3164C291.707 64.3164 290.746 64.0703 289.457 63.5781C289.012 63.2734 288.789 63.0742 288.789 62.9805V62.875C288.789 62.3594 288.871 61.6094 289.035 60.625C288.988 59.8281 288.965 59.1484 288.965 58.5859C289.059 58.5391 289.141 58.5156 289.211 58.5156L289.035 57.4961H289.141C289.141 57.4258 289.105 57.3906 289.035 57.3906C289.152 56.2656 289.211 55.0586 289.211 53.7695V53.6992L289.281 53.5234L289.703 53.5938H290.23C290.559 53.5938 291.121 53.5469 291.918 53.4531C292.129 53.7344 292.234 54.1797 292.234 54.7891V56.0547C292.234 56.1016 292.211 56.125 292.164 56.125C292.469 58.1641 292.809 59.1836 293.184 59.1836C293.184 59.2773 293.242 59.3828 293.359 59.5C293.289 59.6641 292.586 60.0625 291.25 60.6953L291.145 60.8711H291.25C292.586 60.6367 293.535 60.3789 294.098 60.0977L295.609 61.0469C297.531 61.6562 298.914 61.9609 299.758 61.9609C302.898 61.8203 304.785 61.2812 305.418 60.3438C305.418 60.2734 305.523 60.168 305.734 60.0273C306.25 60.5898 306.531 60.8711 306.578 60.8711V60.7656C306.578 60.6953 306.414 60.2734 306.086 59.5C306.531 58.6562 306.754 57.9062 306.754 57.25V56.7227C306.754 54.9414 305.77 53.5938 303.801 52.6797C303.449 52.6797 302.945 52.5156 302.289 52.1875L302.465 51.5898V51.4844H302.359C302.359 51.7188 302.219 51.918 301.938 52.082C301.328 52.082 299.477 51.6953 296.383 50.9219C293.57 50.1016 291.766 49.1992 290.969 48.2148L289.879 46.7734V46.5273H289.984C290.828 46.6445 291.273 46.7031 291.32 46.7031H291.391V46.5977C290.43 46.1055 289.762 45.8008 289.387 45.6836C289.223 45.4492 289.023 44.6289 288.789 43.2227C288.812 42.0508 288.871 41.4648 288.965 41.4648C288.965 41.3945 288.93 41.3594 288.859 41.3594C288.859 39.25 289.797 37.1758 291.672 35.1367C292.422 34.293 292.926 33.8711 293.184 33.8711C293.441 33.8711 293.723 34.5391 294.027 35.875H294.098C294.098 35.8516 294.074 35.6875 294.027 35.3828C294.074 34.6094 294.098 34.1289 294.098 33.9414C293.98 33.5195 293.922 33.2969 293.922 33.2734C294.766 32.6406 296.207 32.1367 298.246 31.7617C299.066 31.6914 299.828 31.5742 300.531 31.4102V31.5156L300.004 32.1836H300.109C300.414 32.0195 300.742 31.7617 301.094 31.4102H301.199C301.574 31.4102 301.914 31.3867 302.219 31.3398Z" fill="#E63535"/>
<path d="M358.258 61.3556H358.009V54.0366C358.009 49.9641 355.516 46.3132 351.822 44.7848C352 44.494 352.105 44.1536 352.105 43.7884C352.105 42.9168 351.518 42.1809 350.719 41.9506V39.4739C354.001 38.8659 356.998 37.157 359.208 34.6208C361.564 31.9173 362.861 28.4515 362.861 24.8615C362.861 16.6669 356.194 10 348 10C339.805 10 333.139 16.6669 333.139 24.8614C333.139 25.6091 333.336 25.8314 333.522 25.8948C333.858 26.009 334.224 25.8893 334.366 25.5653C338.362 16.4522 343.5 15.2237 348 15.2237C353.314 15.2237 357.638 19.5471 357.638 24.8614C357.638 30.1757 353.314 34.4992 348 34.4992C347.345 34.4989 346.691 34.4329 346.057 34.3032C345.83 34.2569 345.59 34.3217 345.443 34.4794C345.259 34.6751 345.281 34.9317 345.281 34.9317V41.9503C344.482 42.1805 343.896 42.9165 343.896 43.7883C343.896 44.1536 344 44.494 344.179 44.7846C340.484 46.3134 337.991 49.9638 337.991 54.0365V61.3555H337.742C336.461 61.3555 335.42 62.3972 335.42 63.6777C335.42 64.9582 336.461 65.9999 337.742 65.9999H358.258C359.539 65.9999 360.58 64.9582 360.58 63.6777C360.58 62.3973 359.539 61.3556 358.258 61.3556ZM346.563 35.6834C347.038 35.7458 347.518 35.7808 348 35.7809C354.021 35.7809 358.919 30.8824 358.919 24.8615C358.919 18.8407 354.021 13.9422 348 13.9422C344.694 13.9422 342.089 14.6662 339.801 16.2207C337.877 17.5279 336.202 19.4306 334.726 21.9917C336.047 15.8774 341.497 11.2816 348 11.2816C355.488 11.2816 361.58 17.3735 361.58 24.8614C361.58 31.5529 356.595 37.3291 349.985 38.2973C349.667 38.3439 349.44 38.6183 349.44 38.9313H349.437V41.8743H346.562V35.6834H346.563ZM345.81 43.1559H350.19C350.539 43.1559 350.823 43.4396 350.823 43.7883C350.823 44.1372 350.539 44.4209 350.19 44.4209H345.81C345.461 44.4209 345.177 44.1372 345.177 43.7883C345.177 43.4396 345.461 43.1559 345.81 43.1559ZM339.273 54.0366C339.273 50.1875 341.826 46.7718 345.499 45.675C345.601 45.6916 345.704 45.7025 345.81 45.7025H350.19C350.296 45.7025 350.4 45.6916 350.501 45.675C354.174 46.7719 356.727 50.1877 356.727 54.0366V61.3556H339.273V54.0366ZM358.258 64.7184H337.742C337.168 64.7184 336.701 64.2515 336.701 63.6778C336.701 63.104 337.168 62.6373 337.742 62.6373H358.258C358.832 62.6373 359.299 63.1042 359.299 63.6778C359.299 64.2516 358.832 64.7184 358.258 64.7184Z" fill="#E63535"/>
</svg>
